$MeshFormat
4.1 0 8
$EndMeshFormat
$PhysicalNames
3
1 2 "fixed_end"
1 3 "loaded_end"
2 1 "beam"
$EndPhysicalNames
$Entities
4 4 1 0
1 0 0 0 0 
2 4 0 0 0 
3 4 0.5 0 0 
4 0 0.5 0 0 
1 0 0 0 4 0 0 0 2 1 -2 
2 4 0 0 4 0.5 0 1 3 2 2 -3 
3 0 0.5 0 4 0.5 0 0 2 3 -4 
4 0 0 0 0 0.5 0 1 2 2 4 -1 
1 0 0 0 4 0.5 0 1 1 4 1 2 3 4 
$EndEntities
$Nodes
9 165 1 165
0 1 0 1
1
0 0 0
0 2 0 1
2
4 0 0
0 3 0 1
3
4 0.5 0
0 4 0 1
4
0 0.5 0
1 1 0 31
5
6
7
8
9
10
11
12
13
14
15
16
17
18
19
20
21
22
23
24
25
26
27
28
29
30
31
32
33
34
35
0.1249999999997618 0 0
0.2499999999994917 0 0
0.3749999999992948 0 0
0.4999999999990924 0 0
0.6249999999987383 0 0
0.7499999999983735 0 0
0.8749999999980086 0 0
0.9999999999976438 0 0
1.124999999997279 0 0
1.249999999996914 0 0
1.374999999996549 0 0
1.499999999996184 0 0
1.62499999999582 0 0
1.749999999995455 0 0
1.87499999999509 0 0
1.999999999994768 0 0
2.124999999995055 0 0
2.249999999995384 0 0
2.374999999995714 0 0
2.499999999996044 0 0
2.624999999996374 0 0
2.749999999996703 0 0
2.874999999997033 0 0
2.999999999997363 0 0
3.124999999997692 0 0
3.249999999998022 0 0
3.374999999998352 0 0
3.499999999998681 0 0
3.624999999999011 0 0
3.749999999999341 0 0
3.87499999999967 0 0
1 2 0 3
36
37
38
4 0.1249999999997055 0
4 0.2499999999993461 0
4 0.3749999999996703 0
1 3 0 31
39
40
41
42
43
44
45
46
47
48
49
50
51
52
53
54
55
56
57
58
59
60
61
62
63
64
65
66
67
68
69
3.87499999999948 0.5 0
3.749999999998959 0.5 0
3.624999999998439 0.5 0
3.499999999998005 0.5 0
3.374999999998785 0.5 0
3.249999999999653 0.5 0
3.12500000000052 0.5 0
3.000000000001388 0.5 0
2.875000000002255 0.5 0
2.750000000003122 0.5 0
2.625000000003989 0.5 0
2.500000000004856 0.5 0
2.375000000005723 0.5 0
2.25000000000659 0.5 0
2.125000000007457 0.5 0
2.000000000008238 0.5 0
1.875000000007804 0.5 0
1.750000000007284 0.5 0
1.625000000006763 0.5 0
1.500000000006243 0.5 0
1.375000000005723 0.5 0
1.250000000005203 0.5 0
1.125000000004682 0.5 0
1.000000000004162 0.5 0
0.875000000003642 0.5 0
0.7500000000031215 0.5 0
0.6250000000026015 0.5 0
0.500000000002081 0.5 0
0.375000000001561 0.5 0
0.2500000000010405 0.5 0
0.1250000000005205 0.5 0
1 4 0 3
70
71
72
0 0.3750000000001735 0
0 0.2500000000010297 0
0 0.1250000000005203 0
2 1 0 93
73
74
75
76
77
78
79
80
81
82
83
84
85
86
87
88
89
90
91
92
93
94
95
96
97
98
99
100
101
102
103
104
105
106
107
108
109
110
111
112
113
114
115
116
117
118
119
120
121
122
123
124
125
126
127
128
129
130
131
132
133
134
135
136
137
138
139
140
141
142
143
144
145
146
147
148
149
150
151
152
153
154
155
156
157
158
159
160
161
162
163
164
165
0.1249999999999514 0.1250000000004948 0
0.1250000000001411 0.2500000000009771 0
0.1250000000003308 0.3750000000001579 0
0.2499999999998788 0.1250000000004693 0
0.2500000000002661 0.2500000000009245 0
0.2500000000006533 0.375000000000142 0
0.3749999999998612 0.1250000000004439 0
0.3750000000004279 0.2500000000008719 0
0.3750000000009944 0.3750000000001263 0
0.4999999999998396 0.1250000000004184 0
0.5000000000005868 0.2500000000008192 0
0.5000000000013339 0.3750000000001107 0
0.624999999999704 0.125000000000393 0
0.6250000000006699 0.2500000000007667 0
0.6250000000016356 0.375000000000095 0
0.7499999999995608 0.1250000000003675 0
0.7500000000007475 0.2500000000007141 0
0.7500000000019346 0.3750000000000792 0
0.8749999999994168 0.125000000000342 0
0.8750000000008255 0.2500000000006615 0
0.8750000000022335 0.3750000000000634 0
0.9999999999992735 0.1250000000003166 0
1.000000000000903 0.2500000000006088 0
1.000000000002533 0.3750000000000477 0
1.12499999999913 0.1250000000002911 0
1.125000000000981 0.2500000000005562 0
1.125000000002832 0.3750000000000319 0
1.249999999998986 0.1250000000002656 0
1.250000000001059 0.2500000000005036 0
1.250000000003131 0.3750000000000163 0
1.374999999998843 0.1250000000002402 0
1.375000000001136 0.250000000000451 0
1.37500000000343 0.3750000000000006 0
1.499999999998699 0.1250000000002147 0
1.500000000001214 0.2500000000003983 0
1.500000000003729 0.3749999999999848 0
1.624999999998555 0.1250000000001892 0
1.625000000001292 0.2500000000003457 0
1.625000000004027 0.3749999999999691 0
1.749999999998412 0.1250000000001638 0
1.750000000001369 0.2500000000002931 0
1.750000000004326 0.3749999999999533 0
1.874999999998268 0.1250000000001383 0
1.875000000001447 0.2500000000002405 0
1.875000000004625 0.3749999999999376 0
1.999999999998136 0.1250000000001129 0
2.000000000001503 0.2500000000001878 0
2.00000000000487 0.3749999999999219 0
2.124999999998155 0.1250000000000874 0
2.125000000001256 0.2500000000001352 0
2.125000000004357 0.3749999999999062 0
2.249999999998186 0.125000000000062 0
2.250000000000987 0.2500000000000826 0
2.250000000003789 0.3749999999998905 0
2.374999999998217 0.1250000000000365 0
2.375000000000719 0.2500000000000301 0
2.375000000003221 0.3749999999998747 0
2.499999999998247 0.125000000000011 0
2.500000000000449 0.2499999999999774 0
2.500000000002653 0.3749999999998589 0
2.624999999998278 0.1249999999999855 0
2.625000000000181 0.2499999999999248 0
2.625000000002085 0.3749999999998433 0
2.749999999998308 0.1249999999999601 0
2.749999999999913 0.2499999999998722 0
2.750000000001517 0.3749999999998276 0
2.874999999998338 0.1249999999999347 0
2.874999999999644 0.2499999999998196 0
2.875000000000949 0.3749999999998119 0
2.999999999998369 0.1249999999999092 0
2.999999999999376 0.249999999999767 0
3.000000000000381 0.3749999999997961 0
3.1249999999984 0.1249999999998837 0
3.124999999999106 0.2499999999997143 0
3.124999999999813 0.3749999999997803 0
3.24999999999843 0.1249999999998582 0
3.249999999998837 0.2499999999996617 0
3.249999999999245 0.3749999999997647 0
3.374999999998461 0.1249999999998328 0
3.374999999998569 0.2499999999996091 0
3.374999999998677 0.374999999999749 0
3.499999999998513 0.1249999999998073 0
3.499999999998343 0.2499999999995565 0
3.499999999998173 0.3749999999997333 0
3.624999999998868 0.1249999999997819 0
3.624999999998724 0.2499999999995039 0
3.624999999998582 0.3749999999997175 0
3.749999999999245 0.1249999999997564 0
3.74999999999915 0.2499999999994513 0
3.749999999999054 0.3749999999997017 0
3.874999999999622 0.1249999999997309 0
3.874999999999575 0.2499999999993986 0
3.874999999999527 0.374999999999686 0
$EndNodes
$Elements
3 136 1 136
1 2 1 4
1 2 36 
2 36 37 
3 37 38 
4 38 3 
1 4 1 4
5 4 70 
6 70 71 
7 71 72 
8 72 1 
2 1 3 128
9 1 5 73 72 
10 72 73 74 71 
11 71 74 75 70 
12 70 75 69 4 
13 5 6 76 73 
14 73 76 77 74 
15 74 77 78 75 
16 75 78 68 69 
17 6 7 79 76 
18 76 79 80 77 
19 77 80 81 78 
20 78 81 67 68 
21 7 8 82 79 
22 79 82 83 80 
23 80 83 84 81 
24 81 84 66 67 
25 8 9 85 82 
26 82 85 86 83 
27 83 86 87 84 
28 84 87 65 66 
29 9 10 88 85 
30 85 88 89 86 
31 86 89 90 87 
32 87 90 64 65 
33 10 11 91 88 
34 88 91 92 89 
35 89 92 93 90 
36 90 93 63 64 
37 11 12 94 91 
38 91 94 95 92 
39 92 95 96 93 
40 93 96 62 63 
41 12 13 97 94 
42 94 97 98 95 
43 95 98 99 96 
44 96 99 61 62 
45 13 14 100 97 
46 97 100 101 98 
47 98 101 102 99 
48 99 102 60 61 
49 14 15 103 100 
50 100 103 104 101 
51 101 104 105 102 
52 102 105 59 60 
53 15 16 106 103 
54 103 106 107 104 
55 104 107 108 105 
56 105 108 58 59 
57 16 17 109 106 
58 106 109 110 107 
59 107 110 111 108 
60 108 111 57 58 
61 17 18 112 109 
62 109 112 113 110 
63 110 113 114 111 
64 111 114 56 57 
65 18 19 115 112 
66 112 115 116 113 
67 113 116 117 114 
68 114 117 55 56 
69 19 20 118 115 
70 115 118 119 116 
71 116 119 120 117 
72 117 120 54 55 
73 20 21 121 118 
74 118 121 122 119 
75 119 122 123 120 
76 120 123 53 54 
77 21 22 124 121 
78 121 124 125 122 
79 122 125 126 123 
80 123 126 52 53 
81 22 23 127 124 
82 124 127 128 125 
83 125 128 129 126 
84 126 129 51 52 
85 23 24 130 127 
86 127 130 131 128 
87 128 131 132 129 
88 129 132 50 51 
89 24 25 133 130 
90 130 133 134 131 
91 131 134 135 132 
92 132 135 49 50 
93 25 26 136 133 
94 133 136 137 134 
95 134 137 138 135 
96 135 138 48 49 
97 26 27 139 136 
98 136 139 140 137 
99 137 140 141 138 
100 138 141 47 48 
101 27 28 142 139 
102 139 142 143 140 
103 140 143 144 141 
104 141 144 46 47 
105 28 29 145 142 
106 142 145 146 143 
107 143 146 147 144 
108 144 147 45 46 
109 29 30 148 145 
110 145 148 149 146 
111 146 149 150 147 
112 147 150 44 45 
113 30 31 151 148 
114 148 151 152 149 
115 149 152 153 150 
116 150 153 43 44 
117 31 32 154 151 
118 151 154 155 152 
119 152 155 156 153 
120 153 156 42 43 
121 32 33 157 154 
122 154 157 158 155 
123 155 158 159 156 
124 156 159 41 42 
125 33 34 160 157 
126 157 160 161 158 
127 158 161 162 159 
128 159 162 40 41 
129 34 35 163 160 
130 160 163 164 161 
131 161 164 165 162 
132 162 165 39 40 
133 35 2 36 163 
134 163 36 37 164 
135 164 37 38 165 
136 165 38 3 39 
$EndElements
