$MeshFormat
4.1 0 8
$EndMeshFormat
$Entities
4 4 1 0
1 0 0 0 0 
2 1 0 0 0 
3 1 8 0 0 
4 0 8 0 0 
1 0 0 0 1 0 0 0 2 1 -2 
2 1 0 0 1 8 0 0 2 2 -3 
3 0 8 0 1 8 0 0 2 3 -4 
4 0 0 0 0 8 0 0 2 4 -1 
1 0 0 0 1 8 0 0 4 1 2 3 4 
$EndEntities
$Nodes
9 165 1 165
0 1 0 1
1
0 0 0
0 2 0 1
2
1 0 0
0 3 0 1
3
1 8 0
0 4 0 1
4
0 8 0
1 1 0 3
5
6
7
0.2499999999994109 0 0
0.4999999999986921 0 0
0.7499999999993406 0 0
1 2 0 31
8
9
10
11
12
13
14
15
16
17
18
19
20
21
22
23
24
25
26
27
28
29
30
31
32
33
34
35
36
37
38
1 0.2499999999995235 0
1 0.4999999999989833 0
1 0.7499999999985896 0
1 0.9999999999981849 0
1 1.249999999997477 0
1 1.499999999996747 0
1 1.749999999996017 0
1 1.999999999995288 0
1 2.249999999994558 0
1 2.499999999993828 0
1 2.749999999993098 0
1 2.999999999992369 0
1 3.249999999991639 0
1 3.499999999990909 0
1 3.749999999990179 0
1 3.999999999989537 0
1 4.249999999990109 0
1 4.499999999990768 0
1 4.749999999991428 0
1 4.999999999992087 0
1 5.249999999992747 0
1 5.499999999993406 0
1 5.749999999994065 0
1 5.999999999994725 0
1 6.249999999995384 0
1 6.499999999996044 0
1 6.749999999996703 0
1 6.999999999997362 0
1 7.249999999998022 0
1 7.499999999998681 0
1 7.749999999999341 0
1 3 0 3
39
40
41
0.7500000000003471 8 0
0.5000000000020595 8 0
0.2500000000010405 8 0
1 4 0 31
42
43
44
45
46
47
48
49
50
51
52
53
54
55
56
57
58
59
60
61
62
63
64
65
66
67
68
69
70
71
72
0 7.749999999998959 0
0 7.499999999997918 0
0 7.249999999996877 0
0 6.999999999996009 0
0 6.749999999997571 0
0 6.499999999999305 0
0 6.250000000001041 0
0 6.000000000002776 0
0 5.75000000000451 0
0 5.500000000006244 0
0 5.250000000007979 0
0 5.000000000009712 0
0 4.750000000011447 0
0 4.500000000013181 0
0 4.250000000014914 0
0 4.000000000016476 0
0 3.750000000015608 0
0 3.500000000014568 0
0 3.250000000013527 0
0 3.000000000012487 0
0 2.750000000011446 0
0 2.500000000010406 0
0 2.250000000009365 0
0 2.000000000008324 0
0 1.750000000007284 0
0 1.500000000006243 0
0 1.250000000005203 0
0 1.000000000004162 0
0 0.7500000000031219 0
0 0.500000000002081 0
0 0.2500000000010409 0
2 1 0 93
73
74
75
76
77
78
79
80
81
82
83
84
85
86
87
88
89
90
91
92
93
94
95
96
97
98
99
100
101
102
103
104
105
106
107
108
109
110
111
112
113
114
115
116
117
118
119
120
121
122
123
124
125
126
127
128
129
130
131
132
133
134
135
136
137
138
139
140
141
142
143
144
145
146
147
148
149
150
151
152
153
154
155
156
157
158
159
160
161
162
163
164
165
0.2499999999994619 0.2500000000006616 0
0.2499999999995128 0.5000000000013066 0
0.2499999999995637 0.7500000000019889 0
0.2499999999996146 1.000000000002667 0
0.2499999999996655 1.250000000003271 0
0.2499999999997164 1.500000000003869 0
0.2499999999997674 1.750000000004467 0
0.2499999999998183 2.000000000005064 0
0.2499999999998692 2.250000000005663 0
0.2499999999999202 2.500000000006262 0
0.249999999999971 2.750000000006859 0
0.2500000000000221 3.000000000007457 0
0.2500000000000729 3.250000000008055 0
0.2500000000001239 3.500000000008653 0
0.2500000000001747 3.750000000009252 0
0.2500000000002257 4.000000000009741 0
0.2500000000002767 4.250000000008713 0
0.2500000000003276 4.500000000007577 0
0.2500000000003785 4.750000000006441 0
0.2500000000004294 5.000000000005306 0
0.2500000000004804 5.250000000004171 0
0.2500000000005312 5.500000000003034 0
0.2500000000005822 5.750000000001898 0
0.2500000000006332 6.000000000000764 0
0.250000000000684 6.249999999999627 0
0.250000000000735 6.49999999999849 0
0.2500000000007859 6.749999999997353 0
0.2500000000008368 6.999999999996347 0
0.2500000000008877 7.249999999997164 0
0.2500000000009387 7.499999999998108 0
0.2500000000009895 7.749999999999056 0
0.4999999999987973 0.2500000000002822 0
0.4999999999989025 0.5000000000005321 0
0.4999999999990078 0.7500000000008558 0
0.499999999999113 1.000000000001174 0
0.4999999999992183 1.25000000000134 0
0.4999999999993234 1.500000000001495 0
0.4999999999994287 1.750000000001651 0
0.4999999999995339 2.000000000001806 0
0.4999999999996392 2.250000000001961 0
0.4999999999997444 2.500000000002117 0
0.4999999999998497 2.750000000002272 0
0.4999999999999549 3.000000000002428 0
0.5000000000000602 3.250000000002583 0
0.5000000000001654 3.500000000002739 0
0.5000000000002705 3.750000000002894 0
0.5000000000003757 4.000000000003006 0
0.5000000000004809 4.250000000002512 0
0.5000000000005862 4.500000000001974 0
0.5000000000006914 4.750000000001437 0
0.5000000000007967 5.000000000000901 0
0.5000000000009019 5.250000000000362 0
0.5000000000010072 5.499999999999826 0
0.5000000000011124 5.749999999999287 0
0.5000000000012177 5.999999999998751 0
0.5000000000013229 6.249999999998213 0
0.5000000000014282 6.499999999997675 0
0.5000000000015334 6.749999999997136 0
0.5000000000016385 6.999999999996684 0
0.5000000000017437 7.249999999997448 0
0.500000000001849 7.4999999999983 0
0.5000000000019542 7.74999999999915 0
0.7499999999993721 0.2499999999999029 0
0.7499999999994034 0.4999999999997576 0
0.749999999999435 0.7499999999997227 0
0.7499999999994664 0.9999999999996791 0
0.7499999999994978 1.249999999999408 0
0.7499999999995292 1.499999999999121 0
0.7499999999995608 1.749999999998833 0
0.7499999999995922 1.999999999998547 0
0.7499999999996237 2.24999999999826 0
0.7499999999996553 2.499999999997972 0
0.7499999999996866 2.749999999997685 0
0.7499999999997179 2.999999999997399 0
0.7499999999997494 3.249999999997111 0
0.7499999999997808 3.499999999996823 0
0.7499999999998124 3.749999999996537 0
0.749999999999844 3.999999999996271 0
0.7499999999998751 4.249999999996311 0
0.7499999999999066 4.499999999996372 0
0.7499999999999382 4.749999999996433 0
0.7499999999999697 4.999999999996493 0
0.7500000000000012 5.249999999996556 0
0.7500000000000325 5.499999999996616 0
0.7500000000000641 5.749999999996676 0
0.7500000000000954 5.999999999996739 0
0.7500000000001269 6.249999999996799 0
0.7500000000001584 6.499999999996859 0
0.7500000000001897 6.749999999996918 0
0.7500000000002213 6.999999999997024 0
0.7500000000002528 7.249999999997736 0
0.7500000000002841 7.49999999999849 0
0.7500000000003156 7.749999999999244 0
$EndNodes
$Elements
9 204 1 204
0 1 15 1
1 1 
0 2 15 1
2 2 
0 3 15 1
3 3 
0 4 15 1
4 4 
1 1 1 4
5 1 5 
6 5 6 
7 6 7 
8 7 2 
1 2 1 32
9 2 8 
10 8 9 
11 9 10 
12 10 11 
13 11 12 
14 12 13 
15 13 14 
16 14 15 
17 15 16 
18 16 17 
19 17 18 
20 18 19 
21 19 20 
22 20 21 
23 21 22 
24 22 23 
25 23 24 
26 24 25 
27 25 26 
28 26 27 
29 27 28 
30 28 29 
31 29 30 
32 30 31 
33 31 32 
34 32 33 
35 33 34 
36 34 35 
37 35 36 
38 36 37 
39 37 38 
40 38 3 
1 3 1 4
41 3 39 
42 39 40 
43 40 41 
44 41 4 
1 4 1 32
45 4 42 
46 42 43 
47 43 44 
48 44 45 
49 45 46 
50 46 47 
51 47 48 
52 48 49 
53 49 50 
54 50 51 
55 51 52 
56 52 53 
57 53 54 
58 54 55 
59 55 56 
60 56 57 
61 57 58 
62 58 59 
63 59 60 
64 60 61 
65 61 62 
66 62 63 
67 63 64 
68 64 65 
69 65 66 
70 66 67 
71 67 68 
72 68 69 
73 69 70 
74 70 71 
75 71 72 
76 72 1 
2 1 3 128
77 1 5 73 72 
78 72 73 74 71 
79 71 74 75 70 
80 70 75 76 69 
81 69 76 77 68 
82 68 77 78 67 
83 67 78 79 66 
84 66 79 80 65 
85 65 80 81 64 
86 64 81 82 63 
87 63 82 83 62 
88 62 83 84 61 
89 61 84 85 60 
90 60 85 86 59 
91 59 86 87 58 
92 58 87 88 57 
93 57 88 89 56 
94 56 89 90 55 
95 55 90 91 54 
96 54 91 92 53 
97 53 92 93 52 
98 52 93 94 51 
99 51 94 95 50 
100 50 95 96 49 
101 49 96 97 48 
102 48 97 98 47 
103 47 98 99 46 
104 46 99 100 45 
105 45 100 101 44 
106 44 101 102 43 
107 43 102 103 42 
108 42 103 41 4 
109 5 6 104 73 
110 73 104 105 74 
111 74 105 106 75 
112 75 106 107 76 
113 76 107 108 77 
114 77 108 109 78 
115 78 109 110 79 
116 79 110 111 80 
117 80 111 112 81 
118 81 112 113 82 
119 82 113 114 83 
120 83 114 115 84 
121 84 115 116 85 
122 85 116 117 86 
123 86 117 118 87 
124 87 118 119 88 
125 88 119 120 89 
126 89 120 121 90 
127 90 121 122 91 
128 91 122 123 92 
129 92 123 124 93 
130 93 124 125 94 
131 94 125 126 95 
132 95 126 127 96 
133 96 127 128 97 
134 97 128 129 98 
135 98 129 130 99 
136 99 130 131 100 
137 100 131 132 101 
138 101 132 133 102 
139 102 133 134 103 
140 103 134 40 41 
141 6 7 135 104 
142 104 135 136 105 
143 105 136 137 106 
144 106 137 138 107 
145 107 138 139 108 
146 108 139 140 109 
147 109 140 141 110 
148 110 141 142 111 
149 111 142 143 112 
150 112 143 144 113 
151 113 144 145 114 
152 114 145 146 115 
153 115 146 147 116 
154 116 147 148 117 
155 117 148 149 118 
156 118 149 150 119 
157 119 150 151 120 
158 120 151 152 121 
159 121 152 153 122 
160 122 153 154 123 
161 123 154 155 124 
162 124 155 156 125 
163 125 156 157 126 
164 126 157 158 127 
165 127 158 159 128 
166 128 159 160 129 
167 129 160 161 130 
168 130 161 162 131 
169 131 162 163 132 
170 132 163 164 133 
171 133 164 165 134 
172 134 165 39 40 
173 7 2 8 135 
174 135 8 9 136 
175 136 9 10 137 
176 137 10 11 138 
177 138 11 12 139 
178 139 12 13 140 
179 140 13 14 141 
180 141 14 15 142 
181 142 15 16 143 
182 143 16 17 144 
183 144 17 18 145 
184 145 18 19 146 
185 146 19 20 147 
186 147 20 21 148 
187 148 21 22 149 
188 149 22 23 150 
189 150 23 24 151 
190 151 24 25 152 
191 152 25 26 153 
192 153 26 27 154 
193 154 27 28 155 
194 155 28 29 156 
195 156 29 30 157 
196 157 30 31 158 
197 158 31 32 159 
198 159 32 33 160 
199 160 33 34 161 
200 161 34 35 162 
201 162 35 36 163 
202 163 36 37 164 
203 164 37 38 165 
204 165 38 3 39 
$EndElements
